<svg xmlns="http://www.w3.org/2000/svg" viewBox="0 0 64 64" role="img" aria-label="SAVI Demo">
  <defs>
    <linearGradient id="g" x1="0%" y1="0%" x2="100%" y2="100%">
      <stop offset="0%" stop-color="#0f0529"/>
      <stop offset="100%" stop-color="#4d2ea3"/>
    </linearGradient>
  </defs>
  <rect width="64" height="64" rx="16" fill="url(#g)"/>
  <path fill="#ffffff" d="M18 42V22h8.5c5.2 0 8.5 2.8 8.5 7.2 0 3.1-1.7 5.4-4.5 6.4L37 42h-6.2l-3.8-5.6H24V42H18zm6-10.4h2.1c2.2 0 3.4-1 3.4-2.7 0-1.7-1.2-2.6-3.4-2.6H24v5.3zM39 42l9-20h7l9 20h-6.4l-1.3-3.4H46.7L45.4 42H39zm10.2-8.2h5.1l-2.5-6.7-2.6 6.7z"/>
</svg>
